<svg id="Camada_1" data-name="Camada 1" xmlns="http://www.w3.org/2000/svg" viewBox="0 0 470.61 184.44"><defs><style>.cls-1{fill:#fff;}</style></defs><path class="cls-1" d="M122,288.18a18.62,18.62,0,0,1,5.55,11.32,54.56,54.56,0,0,1,.45,7.12c.05,9,0,18.07,0,27.1,0,4,1.38,5.39,5.4,5.67.63,0,1.26.07,1.89.07H163a30.55,30.55,0,0,0,14.6-3.31c12.84-6.86,19.63-17.45,19.61-32.22q-.06-48.23,0-96.44c0-6.3.13-12.61-.06-18.91a34.08,34.08,0,0,0-34.3-33.46q-57.9-.1-115.79,0a31.12,31.12,0,0,0-16.28,4.15c-11.74,7-18,17.21-18,31.09q.06,56.94,0,113.88c0,.7,0,1.4,0,2.1a34.16,34.16,0,0,0,33.4,33.08c9.88.23,19.76.08,29.63,0,4.69,0,6.37-1.85,6.35-6.59,0-5.88-.1-11.76-.16-17.65,0-.6-.09-1.21-.11-1.5-5.16,0-10.13.32-15-.07C59.85,313,54.14,309.93,51.28,303c-2.47-6-5.51-11.43-11.34-14.91-1.18-.71-1.73-2.49-2.57-3.77,1.49-.35,3-1.13,4.47-1,6.25.68,10.68,4.32,13.8,9.53,6.2,10.35,14.52,11.75,25.31,8a2.48,2.48,0,0,0,1.45-1.49A21.34,21.34,0,0,1,88,288.08c-1-.18-1.64-.28-2.3-.42-4-.84-8.16-1.37-12.08-2.59-12.85-4-21.8-12.07-25.22-25.43a79.2,79.2,0,0,1-2-11.76c-1.06-10.8,1.05-20.75,8.37-29.21a2.65,2.65,0,0,0,.37-2.2c-2.14-6.42-1.83-12.82,0-19.22,1.3-4.55,2.09-5.07,6.84-3.87a63.47,63.47,0,0,1,18.67,8.41,4.08,4.08,0,0,0,2.84.49,88.5,88.5,0,0,1,43,0,5,5,0,0,0,3.06-.5c5.15-2.48,10.17-5.26,15.41-7.54,2.1-.92,4.62-.94,7-1.15a2.36,2.36,0,0,1,1.82,1.23c2.73,7.11,3.67,14.37,1.2,21.75a2.82,2.82,0,0,0,.67,3.16,31.84,31.84,0,0,1,7.42,15.31A55.23,55.23,0,0,1,159.78,265a28.9,28.9,0,0,1-13.17,15.29,85.83,85.83,0,0,1-13.68,5.7C129.52,287.11,125.84,287.43,122,288.18ZM64.76,302.41l-1.7,1.88a14.29,14.29,0,0,0,2.55,1.6c.25.1.87-.75,1.32-1.17Zm7.6,5.13,2.07-1.86c-.56-.44-1.17-1.28-1.67-1.22-.76.09-1.45.81-2.17,1.26ZM61.1,301.25a19.75,19.75,0,0,0-2.84-2.18c-.23-.12-.94.71-1.43,1.1a16.06,16.06,0,0,0,2.22,2.15C59.27,302.48,60.06,301.81,61.1,301.25Zm18.6,1.42-2,2.26c.52.41,1.13,1.24,1.52,1.14a8.25,8.25,0,0,0,2.27-1.36ZM56,295.93a18.13,18.13,0,0,0-2.22-2.07c-.13-.09-1.23.92-1.19,1a13.58,13.58,0,0,0,1.84,2.29A13.29,13.29,0,0,0,56,295.93Zm-3.73-5.24A16.7,16.7,0,0,0,50,289.16c-.12-.06-.94.92-.88,1a6.72,6.72,0,0,0,1.66,1.62C50.9,291.87,51.5,291.26,52.27,290.69Z" transform="translate(-12.8 -155.08)"/><path class="cls-1" d="M122,288.18c3.87-.75,7.55-1.07,11-2.2a85.83,85.83,0,0,0,13.68-5.7A28.9,28.9,0,0,0,159.78,265a55.23,55.23,0,0,0,3.27-30.47,31.84,31.84,0,0,0-7.42-15.31,2.82,2.82,0,0,1-.67-3.16c2.47-7.38,1.53-14.64-1.2-21.75a2.36,2.36,0,0,0-1.82-1.23c-2.34.21-4.86.23-7,1.15-5.24,2.28-10.26,5.06-15.41,7.54a5,5,0,0,1-3.06.5,88.5,88.5,0,0,0-43,0,4.08,4.08,0,0,1-2.84-.49A63.47,63.47,0,0,0,62,193.38c-4.75-1.2-5.54-.68-6.84,3.87-1.82,6.4-2.13,12.8,0,19.22a2.65,2.65,0,0,1-.37,2.2c-7.32,8.46-9.43,18.41-8.37,29.21a79.2,79.2,0,0,0,2,11.76c3.42,13.36,12.37,21.44,25.22,25.43,3.92,1.22,8,1.75,12.08,2.59.66.14,1.33.24,2.3.42a21.34,21.34,0,0,0-5.62,11.34A2.48,2.48,0,0,1,81,300.91c-10.79,3.73-19.11,2.33-25.31-8-3.12-5.21-7.55-8.85-13.8-9.53-1.44-.15-3,.63-4.47,1,.84,1.28,1.39,3.06,2.57,3.77,5.83,3.48,8.87,8.92,11.34,14.91,2.86,6.91,8.57,10,15.64,10.58,4.91.39,9.88.07,15,.07,0,.29.11.9.11,1.5.06,5.89.13,11.77.16,17.65,0,4.74-1.66,6.56-6.35,6.59-9.87.07-19.75.22-29.63,0a34.16,34.16,0,0,1-33.4-33.08c0-.7,0-1.4,0-2.1q0-56.94,0-113.88c0-13.88,6.27-24.08,18-31.09a31.12,31.12,0,0,1,16.28-4.15q57.9,0,115.79,0a34.08,34.08,0,0,1,34.3,33.46c.19,6.3.06,12.61.06,18.91q0,48.22,0,96.44c0,14.77-6.77,25.36-19.61,32.22a30.55,30.55,0,0,1-14.6,3.31H135.3c-.63,0-1.26,0-1.89-.07-4-.28-5.37-1.62-5.4-5.67-.06-9,0-18.07,0-27.1a54.56,54.56,0,0,0-.45-7.12A18.62,18.62,0,0,0,122,288.18Z" transform="translate(-12.8 -155.08)"/><path class="cls-1" d="M64.76,302.41l2.17,2.31c-.45.42-1.07,1.27-1.32,1.17a14.29,14.29,0,0,1-2.55-1.6Z" transform="translate(-12.8 -155.08)"/><path class="cls-1" d="M72.36,307.54l-1.77-1.82c.72-.45,1.41-1.17,2.17-1.26.5-.06,1.11.78,1.67,1.22Z" transform="translate(-12.8 -155.08)"/><path class="cls-1" d="M61.1,301.25c-1,.56-1.83,1.23-2.05,1.07a16.06,16.06,0,0,1-2.22-2.15c.49-.39,1.2-1.22,1.43-1.1A19.75,19.75,0,0,1,61.1,301.25Z" transform="translate(-12.8 -155.08)"/><path class="cls-1" d="M79.7,302.67l1.77,2a8.25,8.25,0,0,1-2.27,1.36c-.39.1-1-.73-1.52-1.14Z" transform="translate(-12.8 -155.08)"/><path class="cls-1" d="M56,295.93a13.29,13.29,0,0,1-1.57,1.19,13.58,13.58,0,0,1-1.84-2.29c0-.05,1.06-1.06,1.19-1A18.13,18.13,0,0,1,56,295.93Z" transform="translate(-12.8 -155.08)"/><path class="cls-1" d="M52.27,290.69c-.77.57-1.37,1.18-1.5,1.09a6.72,6.72,0,0,1-1.66-1.62c-.06-.08.76-1.06.88-1A16.7,16.7,0,0,1,52.27,290.69Z" transform="translate(-12.8 -155.08)"/><path class="cls-1" d="M214.44,236.72V172.4h36.75V177h4.6v4.59h4.59v45.95h-4.59v4.59h-4.6v4.6Zm9.18-55.14v45.95h23v-4.6h4.59V186.18H246.6v-4.6Z" transform="translate(-12.8 -155.08)"/><path class="cls-1" d="M278.76,236.72v-4.6h-4.6v-4.59h-4.59V209.15h4.59v-4.59h4.6V200h23v4.6h4.59v-9.19h-4.59v-4.6h-23v-9.19h27.56v4.6h4.6v4.59h4.59v45.95h-9.19v-4.6h-4.59v4.6Zm4.59-9.19h18.38v-4.6h4.59v-9.19h-4.59v-4.59H283.35v4.59h-4.59v9.19h4.59Z" transform="translate(-12.8 -155.08)"/><path class="cls-1" d="M324.7,186.18h9.19v27.56h4.6v4.6h4.59v4.59h9.19v-4.59h4.59v-4.6h4.6V186.18h9.19v32.16h-4.6v4.59h-4.59v4.6h-4.6v4.59h-4.59v4.6h-9.19v-4.6h-4.59v-4.59h-4.6v-4.6H329.3v-4.59h-4.6Z" transform="translate(-12.8 -155.08)"/><path class="cls-1" d="M412,227.53h4.59v9.19H407.4v-4.6h-4.59v-4.59h-4.6v-23H389v-9.19H407.4v27.56H412ZM407.4,177v9.19h-9.19V177Z" transform="translate(-12.8 -155.08)"/><path class="cls-1" d="M272.06,321V256.7h9.19v55.13H318V321Z" transform="translate(-12.8 -155.08)"/><path class="cls-1" d="M359.36,311.83H364V321h-9.19v-4.59h-4.59v-4.6h-4.6v-23h-9.19v-9.19h18.38v27.57h4.6Zm-4.6-50.54v9.19h-9.19v-9.19Z" transform="translate(-12.8 -155.08)"/><path class="cls-1" d="M391.52,284.27V321h-9.19V270.48h9.19v4.6h4.59v-4.6h23v4.6h4.6v4.59h4.59V321h-9.19V284.27h-4.59v-4.6h-4.6V321h-9.18V279.67h-4.6v4.6Z" transform="translate(-12.8 -155.08)"/><path class="cls-1" d="M446.65,321v-4.59h-4.59v-4.6h-4.6V293.46h4.6v-4.6h4.59v-4.59h23v4.59h4.6v-9.19h-4.6v-4.59h-23v-9.19h27.57v4.59h4.59v4.6h4.6V321h-9.19v-4.59h-4.6V321Zm4.6-9.19h18.37v-4.59h4.6v-9.19h-4.6v-4.59H451.25v4.59h-4.6v9.19h4.6Z" transform="translate(-12.8 -155.08)"/></svg>